<svg width="1087" height="219" viewBox="0 0 1087 219" fill="none" xmlns="http://www.w3.org/2000/svg">
  lib-icon<path d="M20 5.5H1067C1075.01 5.5 1081.5 11.9919 1081.5 20V198.216C1081.5 206.224 1075.01 212.716 1067 212.716H20C11.9919 212.716 5.5 206.224 5.5 198.216V20C5.5 11.9919 11.9919 5.5 20 5.5Z" fill="white" stroke="#A29BFE" stroke-width="11"/>
<path d="M105.04 85.51H86.595V75.82H134.195V85.51H115.75V136H105.04V85.51ZM171.019 88.74C169.885 87.0967 168.355 85.9067 166.429 85.17C164.559 84.3767 162.575 83.98 160.479 83.98C159.232 83.98 158.014 84.1217 156.824 84.405C155.69 84.6883 154.642 85.1417 153.679 85.765C152.772 86.3883 152.035 87.21 151.469 88.23C150.902 89.1933 150.619 90.355 150.619 91.715C150.619 93.755 151.327 95.3133 152.744 96.39C154.16 97.4667 155.917 98.4017 158.014 99.195C160.11 99.9883 162.405 100.753 164.899 101.49C167.392 102.227 169.687 103.247 171.784 104.55C173.88 105.853 175.637 107.582 177.054 109.735C178.47 111.888 179.179 114.75 179.179 118.32C179.179 121.55 178.584 124.383 177.394 126.82C176.204 129.2 174.589 131.183 172.549 132.77C170.565 134.357 168.242 135.547 165.579 136.34C162.915 137.133 160.11 137.53 157.164 137.53C153.424 137.53 149.825 136.907 146.369 135.66C142.912 134.413 139.937 132.317 137.444 129.37L145.519 121.55C146.822 123.533 148.522 125.092 150.619 126.225C152.772 127.302 155.039 127.84 157.419 127.84C158.665 127.84 159.912 127.67 161.159 127.33C162.405 126.99 163.539 126.48 164.559 125.8C165.579 125.12 166.4 124.27 167.024 123.25C167.647 122.173 167.959 120.955 167.959 119.595C167.959 117.385 167.25 115.685 165.834 114.495C164.417 113.305 162.66 112.313 160.564 111.52C158.467 110.67 156.172 109.877 153.679 109.14C151.185 108.403 148.89 107.412 146.794 106.165C144.697 104.862 142.94 103.162 141.524 101.065C140.107 98.9117 139.399 96.05 139.399 92.48C139.399 89.3633 140.022 86.6717 141.269 84.405C142.572 82.1383 144.244 80.2683 146.284 78.795C148.38 77.265 150.76 76.1317 153.424 75.395C156.087 74.6583 158.807 74.29 161.584 74.29C164.757 74.29 167.817 74.7717 170.764 75.735C173.767 76.6983 176.459 78.285 178.839 80.495L171.019 88.74ZM215.484 75.82H239.199C243.165 75.82 246.99 76.4433 250.674 77.69C254.357 78.88 257.615 80.7217 260.449 83.215C263.282 85.7083 265.549 88.8533 267.249 92.65C268.949 96.39 269.799 100.81 269.799 105.91C269.799 111.067 268.807 115.543 266.824 119.34C264.897 123.08 262.375 126.197 259.259 128.69C256.199 131.127 252.77 132.968 248.974 134.215C245.234 135.405 241.55 136 237.924 136H215.484V75.82ZM234.184 126.31C237.527 126.31 240.672 125.942 243.619 125.205C246.622 124.412 249.229 123.222 251.439 121.635C253.649 119.992 255.377 117.895 256.624 115.345C257.927 112.738 258.579 109.593 258.579 105.91C258.579 102.283 258.012 99.1667 256.879 96.56C255.745 93.9533 254.159 91.8567 252.119 90.27C250.135 88.6267 247.755 87.4367 244.979 86.7C242.259 85.9067 239.255 85.51 235.969 85.51H226.194V126.31H234.184ZM273.521 95.2H284.741L296.131 123.505H296.301L306.501 95.2H317.126L297.831 144.755C297.094 146.682 296.272 148.353 295.366 149.77C294.516 151.243 293.496 152.462 292.306 153.425C291.116 154.445 289.699 155.182 288.056 155.635C286.469 156.145 284.542 156.4 282.276 156.4C279.612 156.4 277.006 156.06 274.456 155.38L275.731 146.2C276.524 146.483 277.346 146.71 278.196 146.88C279.102 147.107 280.009 147.22 280.916 147.22C282.162 147.22 283.211 147.107 284.061 146.88C284.911 146.653 285.619 146.285 286.186 145.775C286.809 145.322 287.319 144.698 287.716 143.905C288.112 143.168 288.537 142.262 288.991 141.185L290.946 136.34L273.521 95.2ZM323.123 95.2H332.813V101.745H332.983C333.946 99.705 335.419 97.9483 337.403 96.475C339.386 94.945 342.078 94.18 345.478 94.18C348.198 94.18 350.493 94.6333 352.363 95.54C354.289 96.4467 355.848 97.6367 357.038 99.11C358.228 100.583 359.078 102.283 359.588 104.21C360.098 106.137 360.353 108.148 360.353 110.245V136H350.153V115.345C350.153 114.212 350.096 112.965 349.983 111.605C349.869 110.188 349.558 108.885 349.048 107.695C348.594 106.448 347.858 105.428 346.838 104.635C345.818 103.785 344.429 103.36 342.673 103.36C340.973 103.36 339.528 103.643 338.338 104.21C337.204 104.777 336.241 105.542 335.448 106.505C334.711 107.468 334.173 108.573 333.833 109.82C333.493 111.067 333.323 112.37 333.323 113.73V136H323.123V95.2ZM397.431 130.39H397.176C395.703 132.713 393.833 134.413 391.566 135.49C389.3 136.51 386.806 137.02 384.086 137.02C382.216 137.02 380.375 136.765 378.561 136.255C376.805 135.745 375.218 134.98 373.801 133.96C372.441 132.94 371.336 131.665 370.486 130.135C369.636 128.605 369.211 126.82 369.211 124.78C369.211 122.57 369.608 120.7 370.401 119.17C371.195 117.583 372.243 116.28 373.546 115.26C374.906 114.183 376.465 113.333 378.221 112.71C379.978 112.087 381.791 111.633 383.661 111.35C385.588 111.01 387.515 110.812 389.441 110.755C391.368 110.642 393.181 110.585 394.881 110.585H397.431V109.48C397.431 106.93 396.553 105.032 394.796 103.785C393.04 102.482 390.801 101.83 388.081 101.83C385.928 101.83 383.916 102.227 382.046 103.02C380.176 103.757 378.561 104.777 377.201 106.08L371.846 100.725C374.113 98.4017 376.748 96.73 379.751 95.71C382.811 94.69 385.956 94.18 389.186 94.18C392.076 94.18 394.513 94.52 396.496 95.2C398.48 95.8233 400.123 96.645 401.426 97.665C402.73 98.685 403.721 99.875 404.401 101.235C405.138 102.538 405.648 103.87 405.931 105.23C406.271 106.59 406.47 107.922 406.526 109.225C406.583 110.472 406.611 111.577 406.611 112.54V136H397.431V130.39ZM396.836 117.725H394.711C393.295 117.725 391.708 117.782 389.951 117.895C388.195 118.008 386.523 118.292 384.936 118.745C383.406 119.142 382.103 119.765 381.026 120.615C379.95 121.408 379.411 122.542 379.411 124.015C379.411 124.978 379.61 125.8 380.006 126.48C380.46 127.103 381.026 127.642 381.706 128.095C382.386 128.548 383.151 128.888 384.001 129.115C384.851 129.285 385.701 129.37 386.551 129.37C390.065 129.37 392.643 128.548 394.286 126.905C395.986 125.205 396.836 122.91 396.836 120.02V117.725ZM417.161 95.2H426.851V101.575H427.021C427.927 99.6483 429.372 97.9483 431.356 96.475C433.396 94.945 436.116 94.18 439.516 94.18C445.919 94.18 450.169 96.7017 452.266 101.745C453.739 99.1383 455.581 97.24 457.791 96.05C460.001 94.8033 462.636 94.18 465.696 94.18C468.416 94.18 470.711 94.6333 472.581 95.54C474.451 96.4467 475.952 97.6933 477.086 99.28C478.276 100.867 479.126 102.737 479.636 104.89C480.146 106.987 480.401 109.253 480.401 111.69V136H470.201V112.88C470.201 111.633 470.087 110.443 469.861 109.31C469.634 108.12 469.237 107.1 468.671 106.25C468.104 105.343 467.339 104.635 466.376 104.125C465.412 103.615 464.166 103.36 462.636 103.36C461.049 103.36 459.689 103.672 458.556 104.295C457.479 104.862 456.572 105.655 455.836 106.675C455.156 107.638 454.646 108.772 454.306 110.075C454.022 111.322 453.881 112.597 453.881 113.9V136H443.681V111.69C443.681 109.14 443.142 107.128 442.066 105.655C440.989 104.125 439.204 103.36 436.711 103.36C435.011 103.36 433.566 103.643 432.376 104.21C431.242 104.777 430.279 105.542 429.486 106.505C428.749 107.468 428.211 108.573 427.871 109.82C427.531 111.067 427.361 112.37 427.361 113.73V136H417.161V95.2ZM491.716 95.2H501.916V136H491.716V95.2ZM490.271 81.345C490.271 79.7017 490.866 78.285 492.056 77.095C493.302 75.8483 494.861 75.225 496.731 75.225C498.601 75.225 500.159 75.82 501.406 77.01C502.709 78.1433 503.361 79.5883 503.361 81.345C503.361 83.1017 502.709 84.575 501.406 85.765C500.159 86.8983 498.601 87.465 496.731 87.465C494.861 87.465 493.302 86.87 492.056 85.68C490.866 84.4333 490.271 82.9883 490.271 81.345ZM541.506 107.44C540.316 106.193 539.069 105.202 537.766 104.465C536.462 103.728 535.131 103.36 533.771 103.36C531.901 103.36 530.229 103.7 528.756 104.38C527.282 105.06 526.007 105.967 524.931 107.1C523.911 108.233 523.117 109.537 522.551 111.01C522.041 112.483 521.786 114.013 521.786 115.6C521.786 117.187 522.041 118.717 522.551 120.19C523.117 121.663 523.911 122.967 524.931 124.1C526.007 125.233 527.282 126.14 528.756 126.82C530.229 127.5 531.901 127.84 533.771 127.84C535.357 127.84 536.831 127.528 538.191 126.905C539.551 126.225 540.712 125.262 541.676 124.015L548.476 131.325C547.456 132.345 546.266 133.223 544.906 133.96C543.602 134.697 542.271 135.292 540.911 135.745C539.551 136.198 538.247 136.51 537.001 136.68C535.754 136.907 534.677 137.02 533.771 137.02C530.711 137.02 527.821 136.51 525.101 135.49C522.381 134.47 520.029 133.025 518.046 131.155C516.062 129.285 514.476 127.047 513.286 124.44C512.152 121.777 511.586 118.83 511.586 115.6C511.586 112.37 512.152 109.452 513.286 106.845C514.476 104.182 516.062 101.915 518.046 100.045C520.029 98.175 522.381 96.73 525.101 95.71C527.821 94.69 530.711 94.18 533.771 94.18C536.377 94.18 538.984 94.69 541.591 95.71C544.254 96.6733 546.577 98.2317 548.561 100.385L541.506 107.44ZM580.718 75.82H619.563V85.51H591.428V101.32H617.948V111.01H591.428V136H580.718V75.82ZM626.552 115.6C626.552 112.37 627.118 109.452 628.252 106.845C629.442 104.182 631.028 101.915 633.012 100.045C634.995 98.175 637.347 96.73 640.067 95.71C642.787 94.69 645.677 94.18 648.737 94.18C651.797 94.18 654.687 94.69 657.407 95.71C660.127 96.73 662.478 98.175 664.462 100.045C666.445 101.915 668.003 104.182 669.137 106.845C670.327 109.452 670.922 112.37 670.922 115.6C670.922 118.83 670.327 121.777 669.137 124.44C668.003 127.047 666.445 129.285 664.462 131.155C662.478 133.025 660.127 134.47 657.407 135.49C654.687 136.51 651.797 137.02 648.737 137.02C645.677 137.02 642.787 136.51 640.067 135.49C637.347 134.47 634.995 133.025 633.012 131.155C631.028 129.285 629.442 127.047 628.252 124.44C627.118 121.777 626.552 118.83 626.552 115.6ZM636.752 115.6C636.752 117.187 637.007 118.717 637.517 120.19C638.083 121.663 638.877 122.967 639.897 124.1C640.973 125.233 642.248 126.14 643.722 126.82C645.195 127.5 646.867 127.84 648.737 127.84C650.607 127.84 652.278 127.5 653.752 126.82C655.225 126.14 656.472 125.233 657.492 124.1C658.568 122.967 659.362 121.663 659.872 120.19C660.438 118.717 660.722 117.187 660.722 115.6C660.722 114.013 660.438 112.483 659.872 111.01C659.362 109.537 658.568 108.233 657.492 107.1C656.472 105.967 655.225 105.06 653.752 104.38C652.278 103.7 650.607 103.36 648.737 103.36C646.867 103.36 645.195 103.7 643.722 104.38C642.248 105.06 640.973 105.967 639.897 107.1C638.877 108.233 638.083 109.537 637.517 111.01C637.007 112.483 636.752 114.013 636.752 115.6ZM680.471 95.2H690.671V101.66H690.841C691.975 99.28 693.59 97.4383 695.686 96.135C697.783 94.8317 700.191 94.18 702.911 94.18C703.535 94.18 704.13 94.2367 704.696 94.35C705.32 94.4633 705.943 94.605 706.566 94.775V104.635C705.716 104.408 704.866 104.238 704.016 104.125C703.223 103.955 702.43 103.87 701.636 103.87C699.256 103.87 697.33 104.323 695.856 105.23C694.44 106.08 693.335 107.072 692.541 108.205C691.805 109.338 691.295 110.472 691.011 111.605C690.785 112.738 690.671 113.588 690.671 114.155V136H680.471V95.2ZM714.578 95.2H724.268V101.575H724.438C725.344 99.6483 726.789 97.9483 728.773 96.475C730.813 94.945 733.533 94.18 736.933 94.18C743.336 94.18 747.586 96.7017 749.683 101.745C751.156 99.1383 752.998 97.24 755.208 96.05C757.418 94.8033 760.053 94.18 763.113 94.18C765.833 94.18 768.128 94.6333 769.998 95.54C771.868 96.4467 773.369 97.6933 774.503 99.28C775.693 100.867 776.543 102.737 777.053 104.89C777.563 106.987 777.818 109.253 777.818 111.69V136H767.618V112.88C767.618 111.633 767.504 110.443 767.278 109.31C767.051 108.12 766.654 107.1 766.088 106.25C765.521 105.343 764.756 104.635 763.793 104.125C762.829 103.615 761.583 103.36 760.053 103.36C758.466 103.36 757.106 103.672 755.973 104.295C754.896 104.862 753.989 105.655 753.253 106.675C752.573 107.638 752.063 108.772 751.723 110.075C751.439 111.322 751.298 112.597 751.298 113.9V136H741.098V111.69C741.098 109.14 740.559 107.128 739.483 105.655C738.406 104.125 736.621 103.36 734.128 103.36C732.428 103.36 730.983 103.643 729.793 104.21C728.659 104.777 727.696 105.542 726.903 106.505C726.166 107.468 725.628 108.573 725.288 109.82C724.948 111.067 724.778 112.37 724.778 113.73V136H714.578V95.2ZM810.723 106.505C808.739 103.728 806.076 102.34 802.733 102.34C801.373 102.34 800.041 102.68 798.738 103.36C797.434 104.04 796.783 105.145 796.783 106.675C796.783 107.922 797.321 108.828 798.398 109.395C799.474 109.962 800.834 110.443 802.478 110.84C804.121 111.237 805.878 111.662 807.748 112.115C809.674 112.512 811.459 113.163 813.103 114.07C814.746 114.92 816.106 116.11 817.183 117.64C818.259 119.17 818.798 121.267 818.798 123.93C818.798 126.367 818.259 128.435 817.183 130.135C816.163 131.778 814.803 133.11 813.103 134.13C811.459 135.15 809.589 135.887 807.493 136.34C805.396 136.793 803.299 137.02 801.203 137.02C798.029 137.02 795.111 136.567 792.448 135.66C789.784 134.753 787.404 133.11 785.308 130.73L792.108 124.355C793.411 125.828 794.799 127.047 796.273 128.01C797.803 128.917 799.644 129.37 801.798 129.37C802.534 129.37 803.299 129.285 804.093 129.115C804.886 128.945 805.623 128.662 806.303 128.265C806.983 127.868 807.521 127.387 807.918 126.82C808.371 126.197 808.598 125.488 808.598 124.695C808.598 123.278 808.059 122.23 806.983 121.55C805.906 120.87 804.546 120.332 802.903 119.935C801.259 119.482 799.474 119.085 797.548 118.745C795.678 118.348 793.921 117.753 792.278 116.96C790.634 116.11 789.274 114.948 788.198 113.475C787.121 112.002 786.583 109.962 786.583 107.355C786.583 105.088 787.036 103.133 787.943 101.49C788.906 99.79 790.153 98.4017 791.683 97.325C793.213 96.2483 794.969 95.455 796.953 94.945C798.936 94.435 800.948 94.18 802.988 94.18C805.708 94.18 808.399 94.6617 811.063 95.625C813.726 96.5317 815.879 98.1183 817.523 100.385L810.723 106.505ZM826.731 130.05C826.731 128.237 827.383 126.678 828.686 125.375C830.046 124.072 831.661 123.42 833.531 123.42C835.345 123.42 836.931 124.043 838.291 125.29C839.651 126.537 840.331 128.067 840.331 129.88C840.331 131.693 839.651 133.252 838.291 134.555C836.988 135.858 835.401 136.51 833.531 136.51C832.625 136.51 831.746 136.34 830.896 136C830.103 135.66 829.395 135.207 828.771 134.64C828.148 134.073 827.638 133.393 827.241 132.6C826.901 131.807 826.731 130.957 826.731 130.05Z" fill="#2C3E50"/>
<path d="M846 50L846 166.5" stroke="#2C3E50" stroke-width="3"/>
</svg>
