<svg width="1087" height="219" viewBox="0 0 1087 219" fill="none" xmlns="http://www.w3.org/2000/svg">
<path d="M20 5.5H1067C1075.01 5.5 1081.5 11.9919 1081.5 20V198.216C1081.5 206.224 1075.01 212.716 1067 212.716H20C11.9919 212.716 5.5 206.224 5.5 198.216V20C5.5 11.9919 11.9919 5.5 20 5.5Z" fill="white" stroke="#A29BFE" stroke-width="11"/>
<path d="M949.035 54V150" stroke="#DFE6E9" stroke-width="40"/>
<path d="M169.715 75.82H193.43C197.397 75.82 201.222 76.4433 204.905 77.69C208.588 78.88 211.847 80.7217 214.68 83.215C217.513 85.7083 219.78 88.8533 221.48 92.65C223.18 96.39 224.03 100.81 224.03 105.91C224.03 111.067 223.038 115.543 221.055 119.34C219.128 123.08 216.607 126.197 213.49 128.69C210.43 131.127 207.002 132.968 203.205 134.215C199.465 135.405 195.782 136 192.155 136H169.715V75.82ZM188.415 126.31C191.758 126.31 194.903 125.942 197.85 125.205C200.853 124.412 203.46 123.222 205.67 121.635C207.88 119.992 209.608 117.895 210.855 115.345C212.158 112.738 212.81 109.593 212.81 105.91C212.81 102.283 212.243 99.1667 211.11 96.56C209.977 93.9533 208.39 91.8567 206.35 90.27C204.367 88.6267 201.987 87.4367 199.21 86.7C196.49 85.9067 193.487 85.51 190.2 85.51H180.425V126.31H188.415ZM227.752 95.2H238.972L250.362 123.505H250.532L260.732 95.2H271.357L252.062 144.755C251.325 146.682 250.504 148.353 249.597 149.77C248.747 151.243 247.727 152.462 246.537 153.425C245.347 154.445 243.93 155.182 242.287 155.635C240.7 156.145 238.774 156.4 236.507 156.4C233.844 156.4 231.237 156.06 228.687 155.38L229.962 146.2C230.755 146.483 231.577 146.71 232.427 146.88C233.334 147.107 234.24 147.22 235.147 147.22C236.394 147.22 237.442 147.107 238.292 146.88C239.142 146.653 239.85 146.285 240.417 145.775C241.04 145.322 241.55 144.698 241.947 143.905C242.344 143.168 242.769 142.262 243.222 141.185L245.177 136.34L227.752 95.2ZM277.354 95.2H287.044V101.745H287.214C288.178 99.705 289.651 97.9483 291.634 96.475C293.618 94.945 296.309 94.18 299.709 94.18C302.429 94.18 304.724 94.6333 306.594 95.54C308.521 96.4467 310.079 97.6367 311.269 99.11C312.459 100.583 313.309 102.283 313.819 104.21C314.329 106.137 314.584 108.148 314.584 110.245V136H304.384V115.345C304.384 114.212 304.328 112.965 304.214 111.605C304.101 110.188 303.789 108.885 303.279 107.695C302.826 106.448 302.089 105.428 301.069 104.635C300.049 103.785 298.661 103.36 296.904 103.36C295.204 103.36 293.759 103.643 292.569 104.21C291.436 104.777 290.473 105.542 289.679 106.505C288.943 107.468 288.404 108.573 288.064 109.82C287.724 111.067 287.554 112.37 287.554 113.73V136H277.354V95.2ZM351.663 130.39H351.408C349.934 132.713 348.064 134.413 345.798 135.49C343.531 136.51 341.038 137.02 338.318 137.02C336.448 137.02 334.606 136.765 332.793 136.255C331.036 135.745 329.449 134.98 328.033 133.96C326.673 132.94 325.568 131.665 324.718 130.135C323.868 128.605 323.443 126.82 323.443 124.78C323.443 122.57 323.839 120.7 324.633 119.17C325.426 117.583 326.474 116.28 327.778 115.26C329.138 114.183 330.696 113.333 332.453 112.71C334.209 112.087 336.023 111.633 337.893 111.35C339.819 111.01 341.746 110.812 343.673 110.755C345.599 110.642 347.413 110.585 349.113 110.585H351.663V109.48C351.663 106.93 350.784 105.032 349.028 103.785C347.271 102.482 345.033 101.83 342.313 101.83C340.159 101.83 338.148 102.227 336.278 103.02C334.408 103.757 332.793 104.777 331.433 106.08L326.078 100.725C328.344 98.4017 330.979 96.73 333.983 95.71C337.043 94.69 340.188 94.18 343.418 94.18C346.308 94.18 348.744 94.52 350.728 95.2C352.711 95.8233 354.354 96.645 355.658 97.665C356.961 98.685 357.953 99.875 358.633 101.235C359.369 102.538 359.879 103.87 360.163 105.23C360.503 106.59 360.701 107.922 360.758 109.225C360.814 110.472 360.843 111.577 360.843 112.54V136H351.663V130.39ZM351.068 117.725H348.943C347.526 117.725 345.939 117.782 344.183 117.895C342.426 118.008 340.754 118.292 339.168 118.745C337.638 119.142 336.334 119.765 335.258 120.615C334.181 121.408 333.643 122.542 333.643 124.015C333.643 124.978 333.841 125.8 334.238 126.48C334.691 127.103 335.258 127.642 335.938 128.095C336.618 128.548 337.383 128.888 338.233 129.115C339.083 129.285 339.933 129.37 340.783 129.37C344.296 129.37 346.874 128.548 348.518 126.905C350.218 125.205 351.068 122.91 351.068 120.02V117.725ZM371.392 95.2H381.082V101.575H381.252C382.159 99.6483 383.604 97.9483 385.587 96.475C387.627 94.945 390.347 94.18 393.747 94.18C400.15 94.18 404.4 96.7017 406.497 101.745C407.97 99.1383 409.812 97.24 412.022 96.05C414.232 94.8033 416.867 94.18 419.927 94.18C422.647 94.18 424.942 94.6333 426.812 95.54C428.682 96.4467 430.184 97.6933 431.317 99.28C432.507 100.867 433.357 102.737 433.867 104.89C434.377 106.987 434.632 109.253 434.632 111.69V136H424.432V112.88C424.432 111.633 424.319 110.443 424.092 109.31C423.865 108.12 423.469 107.1 422.902 106.25C422.335 105.343 421.57 104.635 420.607 104.125C419.644 103.615 418.397 103.36 416.867 103.36C415.28 103.36 413.92 103.672 412.787 104.295C411.71 104.862 410.804 105.655 410.067 106.675C409.387 107.638 408.877 108.772 408.537 110.075C408.254 111.322 408.112 112.597 408.112 113.9V136H397.912V111.69C397.912 109.14 397.374 107.128 396.297 105.655C395.22 104.125 393.435 103.36 390.942 103.36C389.242 103.36 387.797 103.643 386.607 104.21C385.474 104.777 384.51 105.542 383.717 106.505C382.98 107.468 382.442 108.573 382.102 109.82C381.762 111.067 381.592 112.37 381.592 113.73V136H371.392V95.2ZM445.947 95.2H456.147V136H445.947V95.2ZM444.502 81.345C444.502 79.7017 445.097 78.285 446.287 77.095C447.534 75.8483 449.092 75.225 450.962 75.225C452.832 75.225 454.39 75.82 455.637 77.01C456.94 78.1433 457.592 79.5883 457.592 81.345C457.592 83.1017 456.94 84.575 455.637 85.765C454.39 86.8983 452.832 87.465 450.962 87.465C449.092 87.465 447.534 86.87 446.287 85.68C445.097 84.4333 444.502 82.9883 444.502 81.345ZM495.737 107.44C494.547 106.193 493.3 105.202 491.997 104.465C490.694 103.728 489.362 103.36 488.002 103.36C486.132 103.36 484.46 103.7 482.987 104.38C481.514 105.06 480.239 105.967 479.162 107.1C478.142 108.233 477.349 109.537 476.782 111.01C476.272 112.483 476.017 114.013 476.017 115.6C476.017 117.187 476.272 118.717 476.782 120.19C477.349 121.663 478.142 122.967 479.162 124.1C480.239 125.233 481.514 126.14 482.987 126.82C484.46 127.5 486.132 127.84 488.002 127.84C489.589 127.84 491.062 127.528 492.422 126.905C493.782 126.225 494.944 125.262 495.907 124.015L502.707 131.325C501.687 132.345 500.497 133.223 499.137 133.96C497.834 134.697 496.502 135.292 495.142 135.745C493.782 136.198 492.479 136.51 491.232 136.68C489.985 136.907 488.909 137.02 488.002 137.02C484.942 137.02 482.052 136.51 479.332 135.49C476.612 134.47 474.26 133.025 472.277 131.155C470.294 129.285 468.707 127.047 467.517 124.44C466.384 121.777 465.817 118.83 465.817 115.6C465.817 112.37 466.384 109.452 467.517 106.845C468.707 104.182 470.294 101.915 472.277 100.045C474.26 98.175 476.612 96.73 479.332 95.71C482.052 94.69 484.942 94.18 488.002 94.18C490.609 94.18 493.215 94.69 495.822 95.71C498.485 96.6733 500.809 98.2317 502.792 100.385L495.737 107.44ZM534.949 75.82H573.794V85.51H545.659V101.32H572.179V111.01H545.659V136H534.949V75.82ZM580.783 115.6C580.783 112.37 581.35 109.452 582.483 106.845C583.673 104.182 585.26 101.915 587.243 100.045C589.226 98.175 591.578 96.73 594.298 95.71C597.018 94.69 599.908 94.18 602.968 94.18C606.028 94.18 608.918 94.69 611.638 95.71C614.358 96.73 616.71 98.175 618.693 100.045C620.676 101.915 622.235 104.182 623.368 106.845C624.558 109.452 625.153 112.37 625.153 115.6C625.153 118.83 624.558 121.777 623.368 124.44C622.235 127.047 620.676 129.285 618.693 131.155C616.71 133.025 614.358 134.47 611.638 135.49C608.918 136.51 606.028 137.02 602.968 137.02C599.908 137.02 597.018 136.51 594.298 135.49C591.578 134.47 589.226 133.025 587.243 131.155C585.26 129.285 583.673 127.047 582.483 124.44C581.35 121.777 580.783 118.83 580.783 115.6ZM590.983 115.6C590.983 117.187 591.238 118.717 591.748 120.19C592.315 121.663 593.108 122.967 594.128 124.1C595.205 125.233 596.48 126.14 597.953 126.82C599.426 127.5 601.098 127.84 602.968 127.84C604.838 127.84 606.51 127.5 607.983 126.82C609.456 126.14 610.703 125.233 611.723 124.1C612.8 122.967 613.593 121.663 614.103 120.19C614.67 118.717 614.953 117.187 614.953 115.6C614.953 114.013 614.67 112.483 614.103 111.01C613.593 109.537 612.8 108.233 611.723 107.1C610.703 105.967 609.456 105.06 607.983 104.38C606.51 103.7 604.838 103.36 602.968 103.36C601.098 103.36 599.426 103.7 597.953 104.38C596.48 105.06 595.205 105.967 594.128 107.1C593.108 108.233 592.315 109.537 591.748 111.01C591.238 112.483 590.983 114.013 590.983 115.6ZM634.703 95.2H644.903V101.66H645.073C646.206 99.28 647.821 97.4383 649.918 96.135C652.015 94.8317 654.423 94.18 657.143 94.18C657.766 94.18 658.361 94.2367 658.928 94.35C659.551 94.4633 660.175 94.605 660.798 94.775V104.635C659.948 104.408 659.098 104.238 658.248 104.125C657.455 103.955 656.661 103.87 655.868 103.87C653.488 103.87 651.561 104.323 650.088 105.23C648.671 106.08 647.566 107.072 646.773 108.205C646.036 109.338 645.526 110.472 645.243 111.605C645.016 112.738 644.903 113.588 644.903 114.155V136H634.703V95.2ZM668.809 95.2H678.499V101.575H678.669C679.576 99.6483 681.021 97.9483 683.004 96.475C685.044 94.945 687.764 94.18 691.164 94.18C697.567 94.18 701.817 96.7017 703.914 101.745C705.387 99.1383 707.229 97.24 709.439 96.05C711.649 94.8033 714.284 94.18 717.344 94.18C720.064 94.18 722.359 94.6333 724.229 95.54C726.099 96.4467 727.601 97.6933 728.734 99.28C729.924 100.867 730.774 102.737 731.284 104.89C731.794 106.987 732.049 109.253 732.049 111.69V136H721.849V112.88C721.849 111.633 721.736 110.443 721.509 109.31C721.282 108.12 720.886 107.1 720.319 106.25C719.752 105.343 718.987 104.635 718.024 104.125C717.061 103.615 715.814 103.36 714.284 103.36C712.697 103.36 711.337 103.672 710.204 104.295C709.127 104.862 708.221 105.655 707.484 106.675C706.804 107.638 706.294 108.772 705.954 110.075C705.671 111.322 705.529 112.597 705.529 113.9V136H695.329V111.69C695.329 109.14 694.791 107.128 693.714 105.655C692.637 104.125 690.852 103.36 688.359 103.36C686.659 103.36 685.214 103.643 684.024 104.21C682.891 104.777 681.927 105.542 681.134 106.505C680.397 107.468 679.859 108.573 679.519 109.82C679.179 111.067 679.009 112.37 679.009 113.73V136H668.809V95.2ZM764.954 106.505C762.971 103.728 760.307 102.34 756.964 102.34C755.604 102.34 754.272 102.68 752.969 103.36C751.666 104.04 751.014 105.145 751.014 106.675C751.014 107.922 751.552 108.828 752.629 109.395C753.706 109.962 755.066 110.443 756.709 110.84C758.352 111.237 760.109 111.662 761.979 112.115C763.906 112.512 765.691 113.163 767.334 114.07C768.977 114.92 770.337 116.11 771.414 117.64C772.491 119.17 773.029 121.267 773.029 123.93C773.029 126.367 772.491 128.435 771.414 130.135C770.394 131.778 769.034 133.11 767.334 134.13C765.691 135.15 763.821 135.887 761.724 136.34C759.627 136.793 757.531 137.02 755.434 137.02C752.261 137.02 749.342 136.567 746.679 135.66C744.016 134.753 741.636 133.11 739.539 130.73L746.339 124.355C747.642 125.828 749.031 127.047 750.504 128.01C752.034 128.917 753.876 129.37 756.029 129.37C756.766 129.37 757.531 129.285 758.324 129.115C759.117 128.945 759.854 128.662 760.534 128.265C761.214 127.868 761.752 127.387 762.149 126.82C762.602 126.197 762.829 125.488 762.829 124.695C762.829 123.278 762.291 122.23 761.214 121.55C760.137 120.87 758.777 120.332 757.134 119.935C755.491 119.482 753.706 119.085 751.779 118.745C749.909 118.348 748.152 117.753 746.509 116.96C744.866 116.11 743.506 114.948 742.429 113.475C741.352 112.002 740.814 109.962 740.814 107.355C740.814 105.088 741.267 103.133 742.174 101.49C743.137 99.79 744.384 98.4017 745.914 97.325C747.444 96.2483 749.201 95.455 751.184 94.945C753.167 94.435 755.179 94.18 757.219 94.18C759.939 94.18 762.631 94.6617 765.294 95.625C767.957 96.5317 770.111 98.1183 771.754 100.385L764.954 106.505ZM819.374 85.51H800.929V75.82H848.529V85.51H830.084V136H819.374V85.51ZM885.353 88.74C884.219 87.0967 882.689 85.9067 880.763 85.17C878.893 84.3767 876.909 83.98 874.813 83.98C873.566 83.98 872.348 84.1217 871.158 84.405C870.024 84.6883 868.976 85.1417 868.013 85.765C867.106 86.3883 866.369 87.21 865.803 88.23C865.236 89.1933 864.953 90.355 864.953 91.715C864.953 93.755 865.661 95.3133 867.078 96.39C868.494 97.4667 870.251 98.4017 872.348 99.195C874.444 99.9883 876.739 100.753 879.233 101.49C881.726 102.227 884.021 103.247 886.118 104.55C888.214 105.853 889.971 107.582 891.388 109.735C892.804 111.888 893.513 114.75 893.513 118.32C893.513 121.55 892.918 124.383 891.728 126.82C890.538 129.2 888.923 131.183 886.883 132.77C884.899 134.357 882.576 135.547 879.913 136.34C877.249 137.133 874.444 137.53 871.498 137.53C867.758 137.53 864.159 136.907 860.703 135.66C857.246 134.413 854.271 132.317 851.778 129.37L859.853 121.55C861.156 123.533 862.856 125.092 864.953 126.225C867.106 127.302 869.373 127.84 871.753 127.84C872.999 127.84 874.246 127.67 875.493 127.33C876.739 126.99 877.873 126.48 878.893 125.8C879.913 125.12 880.734 124.27 881.358 123.25C881.981 122.173 882.293 120.955 882.293 119.595C882.293 117.385 881.584 115.685 880.168 114.495C878.751 113.305 876.994 112.313 874.898 111.52C872.801 110.67 870.506 109.877 868.013 109.14C865.519 108.403 863.224 107.412 861.128 106.165C859.031 104.862 857.274 103.162 855.858 101.065C854.441 98.9117 853.733 96.05 853.733 92.48C853.733 89.3633 854.356 86.6717 855.603 84.405C856.906 82.1383 858.578 80.2683 860.618 78.795C862.714 77.265 865.094 76.1317 867.758 75.395C870.421 74.6583 873.141 74.29 875.918 74.29C879.091 74.29 882.151 74.7717 885.098 75.735C888.101 76.6983 890.793 78.285 893.173 80.495L885.353 88.74ZM903.731 130.05C903.731 128.237 904.383 126.678 905.686 125.375C907.046 124.072 908.661 123.42 910.531 123.42C912.345 123.42 913.931 124.043 915.291 125.29C916.651 126.537 917.331 128.067 917.331 129.88C917.331 131.693 916.651 133.252 915.291 134.555C913.988 135.858 912.401 136.51 910.531 136.51C909.625 136.51 908.746 136.34 907.896 136C907.103 135.66 906.395 135.207 905.771 134.64C905.148 134.073 904.638 133.393 904.241 132.6C903.901 131.807 903.731 130.957 903.731 130.05Z" fill="#2C3E50"/>
<path d="M126.196 108.09L116.336 93.215L122.796 88.88L135.716 108.09L122.796 127.13L116.421 122.795L126.196 108.09ZM107.241 108.09L97.3814 93.215L103.841 88.88L116.761 108.09L103.841 127.13L97.4664 122.795L107.241 108.09Z" fill="#A29BFE"/>
<path d="M73.025 110.415C72.4017 111.322 71.7217 112.228 70.985 113.135C70.305 113.985 69.54 114.75 68.69 115.43C67.8967 116.11 66.9617 116.677 65.885 117.13C64.865 117.527 63.7033 117.725 62.4 117.725C60.8133 117.725 59.3117 117.47 57.895 116.96C56.535 116.393 55.1467 115.713 53.73 114.92C52.37 114.127 50.8967 113.447 49.31 112.88C47.7233 112.257 45.9383 111.945 43.955 111.945C42.9917 111.945 42.1133 112.143 41.32 112.54C40.5833 112.88 39.9033 113.333 39.28 113.9C38.7133 114.41 38.2033 115.005 37.75 115.685C37.3533 116.365 36.985 117.045 36.645 117.725L33.585 110.585C34.0383 109.678 34.5767 108.8 35.2 107.95C35.8233 107.043 36.56 106.25 37.41 105.57C38.26 104.89 39.2233 104.352 40.3 103.955C41.3767 103.502 42.595 103.275 43.955 103.275C45.5983 103.275 47.2417 103.558 48.885 104.125C50.5283 104.635 52.1717 105.258 53.815 105.995C55.4017 106.675 56.9317 107.355 58.405 108.035C59.935 108.715 61.2667 109.055 62.4 109.055C63.25 109.055 64.0433 108.885 64.78 108.545C65.5167 108.148 66.1683 107.695 66.735 107.185C67.3583 106.618 67.925 105.995 68.435 105.315C68.945 104.635 69.455 103.955 69.965 103.275L73.025 110.415Z" fill="#74B9FF"/>
</svg>
