<svg width="1087" height="219" viewBox="0 0 1087 219" fill="none" xmlns="http://www.w3.org/2000/svg">
<path d="M20 5.5H1067C1075.01 5.5 1081.5 11.9919 1081.5 20V198.216C1081.5 206.224 1075.01 212.716 1067 212.716H20C11.9919 212.716 5.5 206.224 5.5 198.216V20C5.5 11.9919 11.9919 5.5 20 5.5Z" fill="white" stroke="#A29BFE" stroke-width="11"/>
<path d="M182.04 85.51H163.595V75.82H211.195V85.51H192.75V136H182.04V85.51ZM248.019 88.74C246.885 87.0967 245.355 85.9067 243.429 85.17C241.559 84.3767 239.575 83.98 237.479 83.98C236.232 83.98 235.014 84.1217 233.824 84.405C232.69 84.6883 231.642 85.1417 230.679 85.765C229.772 86.3883 229.035 87.21 228.469 88.23C227.902 89.1933 227.619 90.355 227.619 91.715C227.619 93.755 228.327 95.3133 229.744 96.39C231.16 97.4667 232.917 98.4017 235.014 99.195C237.11 99.9883 239.405 100.753 241.899 101.49C244.392 102.227 246.687 103.247 248.784 104.55C250.88 105.853 252.637 107.582 254.054 109.735C255.47 111.888 256.179 114.75 256.179 118.32C256.179 121.55 255.584 124.383 254.394 126.82C253.204 129.2 251.589 131.183 249.549 132.77C247.565 134.357 245.242 135.547 242.579 136.34C239.915 137.133 237.11 137.53 234.164 137.53C230.424 137.53 226.825 136.907 223.369 135.66C219.912 134.413 216.937 132.317 214.444 129.37L222.519 121.55C223.822 123.533 225.522 125.092 227.619 126.225C229.772 127.302 232.039 127.84 234.419 127.84C235.665 127.84 236.912 127.67 238.159 127.33C239.405 126.99 240.539 126.48 241.559 125.8C242.579 125.12 243.4 124.27 244.024 123.25C244.647 122.173 244.959 120.955 244.959 119.595C244.959 117.385 244.25 115.685 242.834 114.495C241.417 113.305 239.66 112.313 237.564 111.52C235.467 110.67 233.172 109.877 230.679 109.14C228.185 108.403 225.89 107.412 223.794 106.165C221.697 104.862 219.94 103.162 218.524 101.065C217.107 98.9117 216.399 96.05 216.399 92.48C216.399 89.3633 217.022 86.6717 218.269 84.405C219.572 82.1383 221.244 80.2683 223.284 78.795C225.38 77.265 227.76 76.1317 230.424 75.395C233.087 74.6583 235.807 74.29 238.584 74.29C241.757 74.29 244.817 74.7717 247.764 75.735C250.767 76.6983 253.459 78.285 255.839 80.495L248.019 88.74ZM292.484 75.82H316.199C320.165 75.82 323.99 76.4433 327.674 77.69C331.357 78.88 334.615 80.7217 337.449 83.215C340.282 85.7083 342.549 88.8533 344.249 92.65C345.949 96.39 346.799 100.81 346.799 105.91C346.799 111.067 345.807 115.543 343.824 119.34C341.897 123.08 339.375 126.197 336.259 128.69C333.199 131.127 329.77 132.968 325.974 134.215C322.234 135.405 318.55 136 314.924 136H292.484V75.82ZM311.184 126.31C314.527 126.31 317.672 125.942 320.619 125.205C323.622 124.412 326.229 123.222 328.439 121.635C330.649 119.992 332.377 117.895 333.624 115.345C334.927 112.738 335.579 109.593 335.579 105.91C335.579 102.283 335.012 99.1667 333.879 96.56C332.745 93.9533 331.159 91.8567 329.119 90.27C327.135 88.6267 324.755 87.4367 321.979 86.7C319.259 85.9067 316.255 85.51 312.969 85.51H303.194V126.31H311.184ZM350.521 95.2H361.741L373.131 123.505H373.301L383.501 95.2H394.126L374.831 144.755C374.094 146.682 373.272 148.353 372.366 149.77C371.516 151.243 370.496 152.462 369.306 153.425C368.116 154.445 366.699 155.182 365.056 155.635C363.469 156.145 361.542 156.4 359.276 156.4C356.612 156.4 354.006 156.06 351.456 155.38L352.731 146.2C353.524 146.483 354.346 146.71 355.196 146.88C356.102 147.107 357.009 147.22 357.916 147.22C359.162 147.22 360.211 147.107 361.061 146.88C361.911 146.653 362.619 146.285 363.186 145.775C363.809 145.322 364.319 144.698 364.716 143.905C365.112 143.168 365.537 142.262 365.991 141.185L367.946 136.34L350.521 95.2ZM400.123 95.2H409.813V101.745H409.983C410.946 99.705 412.419 97.9483 414.403 96.475C416.386 94.945 419.078 94.18 422.478 94.18C425.198 94.18 427.493 94.6333 429.363 95.54C431.289 96.4467 432.848 97.6367 434.038 99.11C435.228 100.583 436.078 102.283 436.588 104.21C437.098 106.137 437.353 108.148 437.353 110.245V136H427.153V115.345C427.153 114.212 427.096 112.965 426.983 111.605C426.869 110.188 426.558 108.885 426.048 107.695C425.594 106.448 424.858 105.428 423.838 104.635C422.818 103.785 421.429 103.36 419.673 103.36C417.973 103.36 416.528 103.643 415.338 104.21C414.204 104.777 413.241 105.542 412.448 106.505C411.711 107.468 411.173 108.573 410.833 109.82C410.493 111.067 410.323 112.37 410.323 113.73V136H400.123V95.2ZM474.431 130.39H474.176C472.703 132.713 470.833 134.413 468.566 135.49C466.3 136.51 463.806 137.02 461.086 137.02C459.216 137.02 457.375 136.765 455.561 136.255C453.805 135.745 452.218 134.98 450.801 133.96C449.441 132.94 448.336 131.665 447.486 130.135C446.636 128.605 446.211 126.82 446.211 124.78C446.211 122.57 446.608 120.7 447.401 119.17C448.195 117.583 449.243 116.28 450.546 115.26C451.906 114.183 453.465 113.333 455.221 112.71C456.978 112.087 458.791 111.633 460.661 111.35C462.588 111.01 464.515 110.812 466.441 110.755C468.368 110.642 470.181 110.585 471.881 110.585H474.431V109.48C474.431 106.93 473.553 105.032 471.796 103.785C470.04 102.482 467.801 101.83 465.081 101.83C462.928 101.83 460.916 102.227 459.046 103.02C457.176 103.757 455.561 104.777 454.201 106.08L448.846 100.725C451.113 98.4017 453.748 96.73 456.751 95.71C459.811 94.69 462.956 94.18 466.186 94.18C469.076 94.18 471.513 94.52 473.496 95.2C475.48 95.8233 477.123 96.645 478.426 97.665C479.73 98.685 480.721 99.875 481.401 101.235C482.138 102.538 482.648 103.87 482.931 105.23C483.271 106.59 483.47 107.922 483.526 109.225C483.583 110.472 483.611 111.577 483.611 112.54V136H474.431V130.39ZM473.836 117.725H471.711C470.295 117.725 468.708 117.782 466.951 117.895C465.195 118.008 463.523 118.292 461.936 118.745C460.406 119.142 459.103 119.765 458.026 120.615C456.95 121.408 456.411 122.542 456.411 124.015C456.411 124.978 456.61 125.8 457.006 126.48C457.46 127.103 458.026 127.642 458.706 128.095C459.386 128.548 460.151 128.888 461.001 129.115C461.851 129.285 462.701 129.37 463.551 129.37C467.065 129.37 469.643 128.548 471.286 126.905C472.986 125.205 473.836 122.91 473.836 120.02V117.725ZM494.161 95.2H503.851V101.575H504.021C504.927 99.6483 506.372 97.9483 508.356 96.475C510.396 94.945 513.116 94.18 516.516 94.18C522.919 94.18 527.169 96.7017 529.266 101.745C530.739 99.1383 532.581 97.24 534.791 96.05C537.001 94.8033 539.636 94.18 542.696 94.18C545.416 94.18 547.711 94.6333 549.581 95.54C551.451 96.4467 552.952 97.6933 554.086 99.28C555.276 100.867 556.126 102.737 556.636 104.89C557.146 106.987 557.401 109.253 557.401 111.69V136H547.201V112.88C547.201 111.633 547.087 110.443 546.861 109.31C546.634 108.12 546.237 107.1 545.671 106.25C545.104 105.343 544.339 104.635 543.376 104.125C542.412 103.615 541.166 103.36 539.636 103.36C538.049 103.36 536.689 103.672 535.556 104.295C534.479 104.862 533.572 105.655 532.836 106.675C532.156 107.638 531.646 108.772 531.306 110.075C531.022 111.322 530.881 112.597 530.881 113.9V136H520.681V111.69C520.681 109.14 520.142 107.128 519.066 105.655C517.989 104.125 516.204 103.36 513.711 103.36C512.011 103.36 510.566 103.643 509.376 104.21C508.242 104.777 507.279 105.542 506.486 106.505C505.749 107.468 505.211 108.573 504.871 109.82C504.531 111.067 504.361 112.37 504.361 113.73V136H494.161V95.2ZM568.716 95.2H578.916V136H568.716V95.2ZM567.271 81.345C567.271 79.7017 567.866 78.285 569.056 77.095C570.302 75.8483 571.861 75.225 573.731 75.225C575.601 75.225 577.159 75.82 578.406 77.01C579.709 78.1433 580.361 79.5883 580.361 81.345C580.361 83.1017 579.709 84.575 578.406 85.765C577.159 86.8983 575.601 87.465 573.731 87.465C571.861 87.465 570.302 86.87 569.056 85.68C567.866 84.4333 567.271 82.9883 567.271 81.345ZM618.506 107.44C617.316 106.193 616.069 105.202 614.766 104.465C613.462 103.728 612.131 103.36 610.771 103.36C608.901 103.36 607.229 103.7 605.756 104.38C604.282 105.06 603.007 105.967 601.931 107.1C600.911 108.233 600.117 109.537 599.551 111.01C599.041 112.483 598.786 114.013 598.786 115.6C598.786 117.187 599.041 118.717 599.551 120.19C600.117 121.663 600.911 122.967 601.931 124.1C603.007 125.233 604.282 126.14 605.756 126.82C607.229 127.5 608.901 127.84 610.771 127.84C612.357 127.84 613.831 127.528 615.191 126.905C616.551 126.225 617.712 125.262 618.676 124.015L625.476 131.325C624.456 132.345 623.266 133.223 621.906 133.96C620.602 134.697 619.271 135.292 617.911 135.745C616.551 136.198 615.247 136.51 614.001 136.68C612.754 136.907 611.677 137.02 610.771 137.02C607.711 137.02 604.821 136.51 602.101 135.49C599.381 134.47 597.029 133.025 595.046 131.155C593.062 129.285 591.476 127.047 590.286 124.44C589.152 121.777 588.586 118.83 588.586 115.6C588.586 112.37 589.152 109.452 590.286 106.845C591.476 104.182 593.062 101.915 595.046 100.045C597.029 98.175 599.381 96.73 602.101 95.71C604.821 94.69 607.711 94.18 610.771 94.18C613.377 94.18 615.984 94.69 618.591 95.71C621.254 96.6733 623.577 98.2317 625.561 100.385L618.506 107.44ZM657.718 75.82H696.563V85.51H668.428V101.32H694.948V111.01H668.428V136H657.718V75.82ZM703.552 115.6C703.552 112.37 704.118 109.452 705.252 106.845C706.442 104.182 708.028 101.915 710.012 100.045C711.995 98.175 714.347 96.73 717.067 95.71C719.787 94.69 722.677 94.18 725.737 94.18C728.797 94.18 731.687 94.69 734.407 95.71C737.127 96.73 739.478 98.175 741.462 100.045C743.445 101.915 745.003 104.182 746.137 106.845C747.327 109.452 747.922 112.37 747.922 115.6C747.922 118.83 747.327 121.777 746.137 124.44C745.003 127.047 743.445 129.285 741.462 131.155C739.478 133.025 737.127 134.47 734.407 135.49C731.687 136.51 728.797 137.02 725.737 137.02C722.677 137.02 719.787 136.51 717.067 135.49C714.347 134.47 711.995 133.025 710.012 131.155C708.028 129.285 706.442 127.047 705.252 124.44C704.118 121.777 703.552 118.83 703.552 115.6ZM713.752 115.6C713.752 117.187 714.007 118.717 714.517 120.19C715.083 121.663 715.877 122.967 716.897 124.1C717.973 125.233 719.248 126.14 720.722 126.82C722.195 127.5 723.867 127.84 725.737 127.84C727.607 127.84 729.278 127.5 730.752 126.82C732.225 126.14 733.472 125.233 734.492 124.1C735.568 122.967 736.362 121.663 736.872 120.19C737.438 118.717 737.722 117.187 737.722 115.6C737.722 114.013 737.438 112.483 736.872 111.01C736.362 109.537 735.568 108.233 734.492 107.1C733.472 105.967 732.225 105.06 730.752 104.38C729.278 103.7 727.607 103.36 725.737 103.36C723.867 103.36 722.195 103.7 720.722 104.38C719.248 105.06 717.973 105.967 716.897 107.1C715.877 108.233 715.083 109.537 714.517 111.01C714.007 112.483 713.752 114.013 713.752 115.6ZM757.471 95.2H767.671V101.66H767.841C768.975 99.28 770.59 97.4383 772.686 96.135C774.783 94.8317 777.191 94.18 779.911 94.18C780.535 94.18 781.13 94.2367 781.696 94.35C782.32 94.4633 782.943 94.605 783.566 94.775V104.635C782.716 104.408 781.866 104.238 781.016 104.125C780.223 103.955 779.43 103.87 778.636 103.87C776.256 103.87 774.33 104.323 772.856 105.23C771.44 106.08 770.335 107.072 769.541 108.205C768.805 109.338 768.295 110.472 768.011 111.605C767.785 112.738 767.671 113.588 767.671 114.155V136H757.471V95.2ZM791.578 95.2H801.268V101.575H801.438C802.344 99.6483 803.789 97.9483 805.773 96.475C807.813 94.945 810.533 94.18 813.933 94.18C820.336 94.18 824.586 96.7017 826.683 101.745C828.156 99.1383 829.998 97.24 832.208 96.05C834.418 94.8033 837.053 94.18 840.113 94.18C842.833 94.18 845.128 94.6333 846.998 95.54C848.868 96.4467 850.369 97.6933 851.503 99.28C852.693 100.867 853.543 102.737 854.053 104.89C854.563 106.987 854.818 109.253 854.818 111.69V136H844.618V112.88C844.618 111.633 844.504 110.443 844.278 109.31C844.051 108.12 843.654 107.1 843.088 106.25C842.521 105.343 841.756 104.635 840.793 104.125C839.829 103.615 838.583 103.36 837.053 103.36C835.466 103.36 834.106 103.672 832.973 104.295C831.896 104.862 830.989 105.655 830.253 106.675C829.573 107.638 829.063 108.772 828.723 110.075C828.439 111.322 828.298 112.597 828.298 113.9V136H818.098V111.69C818.098 109.14 817.559 107.128 816.483 105.655C815.406 104.125 813.621 103.36 811.128 103.36C809.428 103.36 807.983 103.643 806.793 104.21C805.659 104.777 804.696 105.542 803.903 106.505C803.166 107.468 802.628 108.573 802.288 109.82C801.948 111.067 801.778 112.37 801.778 113.73V136H791.578V95.2ZM887.723 106.505C885.739 103.728 883.076 102.34 879.733 102.34C878.373 102.34 877.041 102.68 875.738 103.36C874.434 104.04 873.783 105.145 873.783 106.675C873.783 107.922 874.321 108.828 875.398 109.395C876.474 109.962 877.834 110.443 879.478 110.84C881.121 111.237 882.878 111.662 884.748 112.115C886.674 112.512 888.459 113.163 890.103 114.07C891.746 114.92 893.106 116.11 894.183 117.64C895.259 119.17 895.798 121.267 895.798 123.93C895.798 126.367 895.259 128.435 894.183 130.135C893.163 131.778 891.803 133.11 890.103 134.13C888.459 135.15 886.589 135.887 884.493 136.34C882.396 136.793 880.299 137.02 878.203 137.02C875.029 137.02 872.111 136.567 869.448 135.66C866.784 134.753 864.404 133.11 862.308 130.73L869.108 124.355C870.411 125.828 871.799 127.047 873.273 128.01C874.803 128.917 876.644 129.37 878.798 129.37C879.534 129.37 880.299 129.285 881.093 129.115C881.886 128.945 882.623 128.662 883.303 128.265C883.983 127.868 884.521 127.387 884.918 126.82C885.371 126.197 885.598 125.488 885.598 124.695C885.598 123.278 885.059 122.23 883.983 121.55C882.906 120.87 881.546 120.332 879.903 119.935C878.259 119.482 876.474 119.085 874.548 118.745C872.678 118.348 870.921 117.753 869.278 116.96C867.634 116.11 866.274 114.948 865.198 113.475C864.121 112.002 863.583 109.962 863.583 107.355C863.583 105.088 864.036 103.133 864.943 101.49C865.906 99.79 867.153 98.4017 868.683 97.325C870.213 96.2483 871.969 95.455 873.953 94.945C875.936 94.435 877.948 94.18 879.988 94.18C882.708 94.18 885.399 94.6617 888.063 95.625C890.726 96.5317 892.879 98.1183 894.523 100.385L887.723 106.505ZM903.731 130.05C903.731 128.237 904.383 126.678 905.686 125.375C907.046 124.072 908.661 123.42 910.531 123.42C912.345 123.42 913.931 124.043 915.291 125.29C916.651 126.537 917.331 128.067 917.331 129.88C917.331 131.693 916.651 133.252 915.291 134.555C913.988 135.858 912.401 136.51 910.531 136.51C909.625 136.51 908.746 136.34 907.896 136C907.103 135.66 906.395 135.207 905.771 134.64C905.148 134.073 904.638 133.393 904.241 132.6C903.901 131.807 903.731 130.957 903.731 130.05Z" fill="#2C3E50"/>
<path d="M126.196 108.09L116.336 93.215L122.796 88.88L135.716 108.09L122.796 127.13L116.421 122.795L126.196 108.09ZM107.241 108.09L97.3814 93.215L103.841 88.88L116.761 108.09L103.841 127.13L97.4664 122.795L107.241 108.09Z" fill="#A29BFE"/>
<path d="M73.025 110.415C72.4017 111.322 71.7217 112.228 70.985 113.135C70.305 113.985 69.54 114.75 68.69 115.43C67.8967 116.11 66.9617 116.677 65.885 117.13C64.865 117.527 63.7033 117.725 62.4 117.725C60.8133 117.725 59.3117 117.47 57.895 116.96C56.535 116.393 55.1467 115.713 53.73 114.92C52.37 114.127 50.8967 113.447 49.31 112.88C47.7233 112.257 45.9383 111.945 43.955 111.945C42.9917 111.945 42.1133 112.143 41.32 112.54C40.5833 112.88 39.9033 113.333 39.28 113.9C38.7133 114.41 38.2033 115.005 37.75 115.685C37.3533 116.365 36.985 117.045 36.645 117.725L33.585 110.585C34.0383 109.678 34.5767 108.8 35.2 107.95C35.8233 107.043 36.56 106.25 37.41 105.57C38.26 104.89 39.2233 104.352 40.3 103.955C41.3767 103.502 42.595 103.275 43.955 103.275C45.5983 103.275 47.2417 103.558 48.885 104.125C50.5283 104.635 52.1717 105.258 53.815 105.995C55.4017 106.675 56.9317 107.355 58.405 108.035C59.935 108.715 61.2667 109.055 62.4 109.055C63.25 109.055 64.0433 108.885 64.78 108.545C65.5167 108.148 66.1683 107.695 66.735 107.185C67.3583 106.618 67.925 105.995 68.435 105.315C68.945 104.635 69.455 103.955 69.965 103.275L73.025 110.415Z" fill="#74B9FF"/>
</svg>
